inDegrees=yes
name=ik_lifting_orientations
DataType=double
version=3
OpenSimVersion=4.5-2024-01-10-34fd6af
endheader
time	pelvis_tilt	pelvis_list	pelvis_rotation	pelvis_tx	pelvis_ty	pelvis_tz	hip_flexion_r	hip_adduction_r	hip_rotation_r	knee_angle_r	knee_angle_r_beta	ankle_angle_r	subtalar_angle_r	mtp_angle_r	hip_flexion_l	hip_adduction_l	hip_rotation_l	knee_angle_l	knee_angle_l_beta	ankle_angle_l	subtalar_angle_l	mtp_angle_l	lumbar_extension	lumbar_bending	lumbar_rotation	arm_flex_r	arm_add_r	arm_rot_r	elbow_flex_r	pro_sup_r	wrist_flex_r	wrist_dev_r	arm_flex_l	arm_add_l	arm_rot_l	elbow_flex_l	pro_sup_l	wrist_flex_l	wrist_dev_l
0.74	-0.2941729585519871	-0.319888090904242	-91.02586862163756	0	0.9399999998679526	0	45.04492643109855	-11.36633479720243	0	59.862582968891	1.04479917155543	-5.594008060747769	0	0	45.04492643109855	-11.36633479720243	0	59.862582968891	1.04479917155543	-5.594008060747769	0	0	-0.4664830804128231	0.4017003338042806	3.161441682041823	-9.367147868749473	0.5437590124115039	11.78603818989467	11.74131950204958	2.955105806840595	0	0	0	-9.796258414636929	0	87.0856604673876	2.955105806840595	0	0
0.75	-0.325454131944725	-0.3534001453912766	-91.01745802353086	0	0.9399999998679526	0	45.04491427953971	-11.36504536120694	0	59.86261222556645	1.044799682180745	-5.593277864819578	0	0	45.04491427953971	-11.36504536120694	0	59.86261222556645	1.044799682180745	-5.593277864819578	0	0	-0.756302531397831	0.6714303406889729	3.593089025117344	-9.064375729786677	0.438293742294434	11.32149301875358	11.91162763934834	2.95454871341152	0	0	0	-9.796981664292858	0	87.08620982795007	2.95454871341152	0	0
0.76	-0.3291868480231038	-0.3584619700111757	-90.94655435046651	0	0.9399999998679526	0	45.04490420813278	-11.36398943333766	0	59.86263669083743	1.044800109180276	-5.59268140306382	0	0	45.04490420813278	-11.36398943333766	0	59.86263669083743	1.044800109180276	-5.59268140306382	0	0	-1.007963688676704	0.8904573447489701	3.937369579072021	-8.803579918971094	0.2553578402324663	10.82589440501155	12.08445292041207	2.954085368704303	0	0	0	-9.797584967979308	0	87.08666674133742	2.954085368704303	0	0
0.77	-0.3806075011392883	-0.4226596880344508	-90.95723856076012	0	0.9399999998679526	0	45.04489415212326	-11.36292162179141	0	59.86266086923094	1.044800531172851	-5.592076786936817	0	0	45.04489415212326	-11.36292162179141	0	59.86266086923094	1.044800531172851	-5.592076786936817	0	0	-1.366331315787733	1.203106076629723	4.266338222984136	-8.670128111121175	0.05206722395048143	10.53929579685771	12.34119201719995	2.953624540668632	0	0	0	-9.798183007214691	0	87.0871211727143	2.953624540668632	0	0
0.78	-0.4348253097131162	-0.4811866794538512	-90.90969735673579	0	0.9399999998679526	0	45.04488184311348	-11.36161358392485	0	59.86269043623221	1.044801047214373	-5.591336128578905	0	0	45.04488184311348	-11.36161358392485	0	59.86269043623221	1.044801047214373	-5.591336128578905	0	0	-1.789119795200081	1.58207684369575	4.814312408445779	-8.424783815678678	-0.2431627254650931	10.11852656923906	12.69435326353924	2.953060647616602	0	0	0	-9.79891458977222	0	87.0876772384579	2.953060647616602	0	0
0.79	-0.4878546700277547	-0.5420084862425123	-90.86086833679157	0	0.9399999998679526	0	45.04486948661711	-11.3603082454174	0	59.86272023616998	1.044801567321404	-5.590598005574348	0	0	45.04486948661711	-11.3603082454174	0	59.86272023616998	1.044801567321404	-5.590598005574348	0	0	-2.220311167365624	1.948657921013693	5.359540044347519	-8.2848067439978	-0.5683226250635409	9.490481424770989	13.19046539568489	2.952493666185348	0	0	0	-9.799651159010516	0	87.0882363498505	2.952493666185348	0	0
0.8	-0.57111387550327	-0.6191839992235529	-90.82646758437878	0	0.9399999998679526	0	45.04485363103844	-11.35863762410288	0	59.86275853112455	1.044802235694448	-5.589653982717797	0	0	45.04485363103844	-11.35863762410288	0	59.86275853112455	1.044802235694448	-5.589653982717797	0	0	-2.807811818703824	2.511639583498868	4.766297183471269	-7.966877944352654	-1.32906578140541	9.973986479212652	13.7652670789555	2.951765663187594	0	0	0	-9.800597400688565	0	87.08895424780769	2.951765663187594	0	0
0.8100000000000001	-0.6110520070404849	-0.6898374946717563	-90.71120602443551	0	0.9399999998679526	0	45.04484242877202	-11.35745453597544	0	59.86278552617799	1.044802706847012	-5.588985238683779	0	0	45.04484242877202	-11.35745453597544	0	59.86278552617799	1.044802706847012	-5.588985238683779	0	0	-3.415766734457284	3.036356904180398	4.508926163142275	-7.644889381345472	-2.059152912674099	9.641561834092846	14.53299354733469	2.951251733154154	0	0	0	-9.801264926123633	0	87.08946104417799	2.951251733154154	0	0
0.82	-0.6980063577553689	-0.7371663727567339	-90.72166487009146	0	0.9399999998679526	0	45.04482541461006	-11.35565918588831	0	59.86282653576959	1.04480342259941	-5.587970732621582	0	0	45.04482541461006	-11.35565918588831	0	59.86282653576959	1.04480342259941	-5.587970732621582	0	0	-4.018908057608821	3.62021103238595	4.762569728293172	-7.153945897356044	-2.755867998544546	8.829287731056104	15.1569351325041	2.950471052320906	0	0	0	-9.802279037292976	0	87.09023088870526	2.950471052320906	0	0
0.83	-0.7398299438085137	-0.8215116763084978	-90.67484175064759	0	0.9399999998679526	0	45.04481340833082	-11.35439432189603	0	59.86285549465356	1.044803928027283	-5.587256350366303	0	0	45.04481340833082	-11.35439432189603	0	59.86285549465356	1.044803928027283	-5.587256350366303	0	0	-4.649186997411721	4.14799848090541	5.105391104838937	-6.679530104026052	-3.44994267676362	7.571643051269835	15.7201280571909	2.949919968813155	0	0	0	-9.802995084906893	0	87.09077432288183	2.949919968813155	0	0
0.84	-0.845679963020237	-0.8996700717524188	-90.82693113773986	0	0.9399999998679526	0	45.04479845318146	-11.35281504575321	0	59.86289148217233	1.044804556127976	-5.586364111149232	0	0	45.04479845318146	-11.35281504575321	0	59.86289148217233	1.044804556127976	-5.586364111149232	0	0	-5.356374409874528	4.73737654792123	5.840203780594812	-6.244211665699939	-4.055933090478746	5.853695604023314	16.24252479755842	2.949234107095191	0	0	0	-9.80388561009441	0	87.09145066439201	2.949234107095191	0	0
0.85	-0.909607838963396	-0.9717627525876005	-90.8596899739667	0	0.9399999998679526	0	45.04478284430542	-11.35118459807656	0	59.86292934418685	1.04480521694479	-5.585445085229401	0	0	45.04478284430542	-11.35118459807656	0	59.86292934418685	1.04480521694479	-5.585445085229401	0	0	-6.118378260980478	5.347598741352297	6.607367488684275	-5.704593162646763	-4.658074601368074	4.508153168430313	16.79369591688785	2.948516002742123	0	0	0	-9.804820468266485	0	87.09215880133273	2.948516002742123	0	0
